<svg id="svg" version="1.1" xmlns="http://www.w3.org/2000/svg" xmlns:xlink="http://www.w3.org/1999/xlink" width="400" height="251.77025963808023" viewBox="0, 0, 400,251.77025963808023"><g id="svgg"><path id="path0" d="M66.250 64.837 L 57.250 64.936 55.736 65.374 C 49.279 67.242,44.028 71.679,42.134 76.868 C 40.472 81.421,40.601 77.841,40.642 118.083 C 40.680 156.250,40.642 154.629,41.581 157.535 C 42.719 161.055,43.521 162.485,44.364 162.496 C 44.707 162.501,44.912 162.215,46.754 159.167 C 50.605 152.794,56.813 147.533,62.750 145.611 C 71.082 142.912,77.398 143.108,83.485 146.251 C 84.975 147.021,85.656 147.165,85.976 146.779 C 86.107 146.621,86.173 136.372,86.211 110.488 C 86.259 77.534,86.288 74.280,86.544 72.833 C 87.026 70.121,87.503 68.133,87.926 67.075 C 88.544 65.530,88.462 65.109,87.489 64.830 C 86.897 64.660,82.178 64.662,66.250 64.837 M160.667 130.443 C 159.521 130.473,158.415 130.538,158.208 130.586 L 157.833 130.673 157.833 135.493 C 157.833 139.167,157.883 140.346,158.042 140.448 C 158.156 140.523,162.375 140.621,167.417 140.667 L 176.583 140.750 177.500 141.201 C 178.724 141.804,180.090 143.126,180.333 143.943 C 181.160 146.717,180.427 148.958,178.206 150.444 L 177.250 151.083 167.797 151.167 C 159.693 151.238,158.309 151.286,158.096 151.500 C 157.713 151.885,157.673 180.411,158.056 180.794 C 158.349 181.087,158.629 181.099,163.958 181.041 C 168.939 180.986,168.333 182.325,168.333 171.365 C 168.333 164.448,168.381 162.334,168.542 162.122 C 168.999 161.518,172.152 161.442,173.370 162.006 C 173.749 162.181,174.833 164.199,174.833 164.731 C 174.833 164.779,175.433 166.062,176.167 167.583 C 176.900 169.104,177.500 170.420,177.500 170.508 C 177.500 170.596,177.866 171.436,178.312 172.375 C 179.870 175.650,180.297 176.586,180.421 177.000 C 180.851 178.441,182.066 180.515,182.667 180.836 C 183.084 181.059,192.370 181.103,192.938 180.886 C 193.462 180.684,193.387 179.991,192.665 178.359 C 192.273 177.474,191.749 176.262,191.500 175.667 C 191.251 175.071,190.843 174.133,190.593 173.583 C 190.344 173.033,189.815 171.871,189.420 171.000 C 189.024 170.129,188.534 169.004,188.331 168.500 C 188.128 167.996,187.587 166.796,187.128 165.833 C 186.305 164.109,185.181 161.509,184.734 160.296 C 184.406 159.409,184.564 159.140,186.523 157.250 C 193.259 150.749,193.071 140.493,186.103 134.288 C 182.070 130.698,177.449 130.000,160.667 130.443 M253.133 130.539 C 252.445 130.768,252.354 131.381,252.364 135.722 C 252.373 139.617,252.381 139.703,252.755 140.139 L 253.137 140.583 262.610 140.678 C 267.821 140.730,272.271 140.830,272.500 140.902 C 276.992 142.297,277.888 142.797,280.797 145.533 C 281.189 145.902,281.632 146.439,281.781 146.726 C 281.930 147.014,282.291 147.598,282.585 148.025 C 285.394 152.108,285.351 158.933,282.488 163.507 C 281.583 164.951,278.966 167.833,278.559 167.833 C 278.506 167.833,277.844 168.207,277.087 168.664 C 276.331 169.121,275.008 169.729,274.148 170.014 L 272.583 170.533 262.863 170.574 L 253.143 170.616 252.780 170.979 C 252.212 171.547,252.212 180.120,252.780 180.688 L 253.144 181.052 263.114 181.015 C 273.594 180.976,274.266 180.935,276.917 180.170 C 279.264 179.494,281.878 178.323,283.571 177.189 C 284.205 176.764,284.988 176.267,285.309 176.083 C 286.165 175.595,289.609 172.112,290.635 170.696 C 295.795 163.578,296.904 153.422,293.368 145.667 C 293.180 145.254,292.930 144.654,292.812 144.333 C 292.434 143.301,289.711 139.430,288.310 137.933 C 284.377 133.729,279.969 131.533,273.667 130.637 C 271.965 130.395,253.825 130.308,253.133 130.539 M304.471 130.455 C 303.335 130.573,303.417 128.613,303.417 155.688 L 303.417 180.324 303.792 180.699 C 304.163 181.071,304.206 181.074,308.705 181.051 L 313.244 181.027 313.622 180.588 L 314.000 180.148 314.000 155.750 L 314.000 131.352 313.598 130.884 L 313.196 130.417 309.139 130.404 C 306.909 130.397,304.808 130.420,304.471 130.455 M342.994 130.506 C 339.494 130.809,334.645 132.235,332.834 133.492 C 332.604 133.652,331.967 134.020,331.417 134.311 C 330.867 134.602,330.154 135.073,329.833 135.356 C 329.512 135.640,328.837 136.199,328.333 136.598 C 327.111 137.566,324.635 140.257,324.034 141.270 C 323.769 141.718,323.346 142.383,323.094 142.750 C 319.048 148.629,318.452 158.926,321.742 166.113 C 324.226 171.538,330.150 177.339,334.898 178.996 C 335.366 179.160,336.425 179.530,337.250 179.818 C 351.616 184.840,367.842 175.114,370.416 159.937 C 371.323 154.585,369.782 146.254,367.267 142.918 C 367.059 142.642,366.674 142.042,366.411 141.583 C 362.370 134.530,352.178 129.709,342.994 130.506 M220.909 133.375 C 220.394 134.406,219.868 135.536,219.740 135.885 C 219.612 136.235,218.951 137.660,218.271 139.052 C 214.721 146.316,214.167 147.476,214.167 147.632 C 214.167 147.725,213.634 148.840,212.984 150.109 C 212.333 151.378,211.654 152.786,211.475 153.238 C 211.295 153.689,210.597 155.189,209.922 156.571 C 207.827 160.865,205.667 165.418,205.667 165.539 C 205.667 165.604,205.075 166.850,204.351 168.308 C 203.627 169.767,202.980 171.138,202.913 171.355 C 202.846 171.572,202.231 172.875,201.547 174.250 C 200.862 175.625,200.130 177.200,199.919 177.750 C 199.708 178.300,199.415 178.975,199.269 179.250 C 198.398 180.883,198.626 180.962,204.424 181.027 C 210.509 181.095,209.974 181.296,211.322 178.445 C 211.850 177.329,212.621 175.704,213.037 174.833 C 213.453 173.963,214.598 171.563,215.582 169.500 C 221.096 157.942,222.199 155.750,222.500 155.750 C 222.736 155.750,225.286 160.465,225.319 160.962 C 225.327 161.078,225.979 162.503,226.768 164.128 C 227.557 165.754,228.823 168.396,229.582 170.000 C 230.341 171.604,231.642 174.342,232.473 176.083 C 233.303 177.825,234.028 179.414,234.083 179.615 C 234.138 179.815,234.444 180.209,234.764 180.490 L 235.345 181.000 240.472 181.000 C 245.853 181.000,246.000 180.980,246.000 180.256 C 246.000 179.846,244.884 177.239,243.430 174.250 C 242.405 172.144,241.212 169.638,237.955 162.750 C 234.124 154.648,233.551 153.441,232.376 151.000 C 231.692 149.579,230.998 148.079,230.834 147.667 C 230.669 147.254,230.012 145.867,229.374 144.583 C 228.736 143.300,228.115 141.987,227.994 141.667 C 227.873 141.346,227.234 139.996,226.574 138.667 C 225.173 135.843,223.580 132.411,223.421 131.875 C 223.328 131.560,223.194 131.500,222.578 131.500 L 221.844 131.500 220.909 133.375 M347.476 140.922 C 359.320 143.169,364.152 157.033,356.096 165.658 C 354.243 167.641,353.913 167.876,351.033 169.265 C 346.867 171.273,341.529 170.933,337.583 168.409 C 337.088 168.092,336.634 167.833,336.574 167.833 C 336.011 167.833,332.868 164.285,332.060 162.738 C 327.120 153.274,332.377 143.108,343.417 140.776 C 344.194 140.612,346.226 140.685,347.476 140.922 " stroke="none" fill="#040404" fill-rule="evenodd"></path><path id="path1" d="M217.615 80.344 C 202.339 82.011,196.835 101.588,209.078 110.710 C 217.663 117.106,229.888 114.256,234.645 104.749 C 236.792 100.458,236.721 93.621,234.484 89.322 C 231.387 83.369,224.327 79.611,217.615 80.344 M277.075 80.343 C 261.695 82.199,256.862 102.618,269.750 111.289 C 278.290 117.035,290.346 113.788,294.592 104.599 C 300.251 92.351,290.415 78.732,277.075 80.343 M222.839 90.187 C 231.621 94.364,227.363 106.721,217.791 104.838 C 212.837 103.864,210.272 98.393,212.580 93.724 C 214.358 90.127,219.202 88.457,222.839 90.187 M281.536 89.831 C 285.811 91.151,288.147 95.482,286.846 99.674 C 284.450 107.395,272.691 106.489,271.453 98.487 C 270.588 92.903,276.117 88.157,281.536 89.831 " stroke="none" fill="#fafaf9" fill-rule="evenodd"></path><path id="path2" d="M96.208 65.005 C 95.408 65.327,96.207 67.983,97.619 69.694 C 97.720 69.817,98.053 70.404,98.360 71.000 C 99.523 73.261,102.179 76.502,106.083 80.423 C 108.889 83.241,110.091 84.351,114.833 88.509 C 122.810 95.501,125.227 97.914,129.045 102.695 C 129.387 103.123,129.667 103.511,129.667 103.558 C 129.667 103.605,130.110 104.312,130.651 105.130 C 132.174 107.430,133.997 111.497,134.674 114.104 C 135.233 116.259,135.347 123.803,134.855 126.101 C 134.249 128.934,132.707 133.055,131.645 134.683 C 131.322 135.178,130.726 136.180,130.321 136.910 C 128.688 139.847,126.572 140.976,127.811 138.249 C 128.507 136.716,128.584 135.956,128.557 130.915 C 128.525 125.289,128.470 124.963,127.103 122.340 C 124.414 117.182,119.176 112.206,113.147 109.083 C 112.793 108.900,111.697 108.289,110.710 107.724 C 109.724 107.160,108.429 106.440,107.833 106.124 C 99.554 101.728,96.229 99.461,93.414 96.295 C 92.364 95.114,91.828 94.887,91.506 95.489 C 91.389 95.708,91.332 106.146,91.330 128.031 C 91.328 148.846,91.267 160.663,91.158 161.417 C 90.320 167.222,88.016 171.963,84.157 175.823 C 83.181 176.799,80.864 178.787,80.167 179.246 C 79.754 179.518,79.137 179.985,78.795 180.284 C 78.452 180.583,77.759 181.061,77.253 181.346 C 74.946 182.648,77.190 183.389,80.309 182.356 C 81.101 182.093,82.132 181.829,82.598 181.770 C 85.184 181.441,92.294 178.525,95.250 176.581 C 95.708 176.279,96.356 175.881,96.690 175.696 C 97.024 175.511,98.242 174.643,99.397 173.768 C 102.384 171.505,101.960 171.648,106.500 171.375 C 109.689 171.184,111.639 171.174,117.000 171.323 C 124.048 171.517,128.581 171.387,131.171 170.915 C 131.948 170.773,132.970 170.590,133.443 170.507 C 138.832 169.561,144.988 163.496,146.727 157.417 C 147.513 154.670,147.497 155.455,147.499 118.143 C 147.500 79.680,147.540 81.529,146.647 78.796 C 146.459 78.221,146.286 77.675,146.261 77.583 C 144.804 72.096,137.257 65.910,130.917 65.006 C 129.430 64.794,96.735 64.793,96.208 65.005 M176.750 69.247 C 171.112 70.041,167.835 71.408,163.155 74.917 C 161.967 75.808,158.219 79.581,157.890 80.219 C 157.745 80.498,157.355 81.073,157.022 81.496 C 153.974 85.373,151.931 94.339,152.654 100.667 C 153.957 112.082,162.466 121.807,173.651 124.663 C 177.907 125.749,187.595 126.072,188.509 125.157 C 188.950 124.716,189.006 115.160,188.571 114.583 C 188.333 114.268,188.060 114.244,183.618 114.146 C 181.032 114.089,178.542 113.962,178.083 113.865 C 176.737 113.577,174.996 113.004,173.833 112.467 C 173.237 112.191,172.577 111.899,172.366 111.817 C 171.163 111.350,168.517 108.930,166.946 106.857 C 162.695 101.252,163.577 91.317,168.830 85.630 C 172.499 81.659,175.723 80.501,183.555 80.346 C 188.781 80.242,188.822 80.233,188.839 79.260 C 188.856 78.324,188.866 70.367,188.851 70.042 C 188.804 69.027,188.643 68.998,183.208 69.018 C 180.204 69.028,177.659 69.119,176.750 69.247 M215.583 69.251 C 193.749 72.383,183.474 97.306,196.897 114.577 C 199.437 117.844,204.678 121.857,207.904 123.003 C 211.401 124.246,212.369 124.549,213.750 124.833 C 227.957 127.756,241.986 119.680,246.677 105.878 C 248.498 100.519,248.168 91.734,245.960 86.833 C 245.774 86.421,245.439 85.671,245.216 85.167 C 244.554 83.674,244.120 82.880,243.460 81.956 C 243.117 81.476,242.584 80.705,242.275 80.242 C 240.886 78.159,236.547 74.238,234.250 72.990 C 227.834 69.504,221.984 68.332,215.583 69.251 M275.333 69.247 C 272.976 69.598,270.485 70.183,269.210 70.686 C 266.469 71.767,262.829 73.809,261.750 74.870 C 261.475 75.141,261.063 75.463,260.833 75.586 C 260.604 75.708,259.704 76.539,258.833 77.432 C 251.949 84.488,249.150 94.631,251.508 103.977 C 251.950 105.731,252.859 108.325,253.180 108.750 C 253.249 108.842,253.465 109.322,253.660 109.817 C 256.051 115.884,264.193 122.397,272.000 124.489 C 287.714 128.700,304.349 118.384,307.189 102.667 C 309.896 87.686,300.460 73.002,286.044 69.764 C 282.623 68.995,278.399 68.791,275.333 69.247 M319.000 69.333 C 318.487 69.846,318.472 124.557,318.985 125.190 L 319.304 125.583 338.731 125.583 L 358.157 125.583 358.537 125.204 C 359.137 124.604,359.173 115.386,358.577 114.694 L 358.196 114.250 344.686 114.167 L 331.176 114.083 330.796 113.704 L 330.417 113.324 330.333 91.481 L 330.250 69.637 329.857 69.319 C 329.235 68.815,319.505 68.828,319.000 69.333 M223.483 80.657 C 228.839 82.213,232.590 85.213,234.893 89.782 C 236.804 93.574,236.859 100.306,235.010 104.264 C 230.882 113.102,220.651 116.747,211.897 112.498 C 196.697 105.121,200.265 82.949,217.083 80.276 C 218.375 80.071,222.262 80.302,223.483 80.657 M282.020 80.412 C 298.627 83.324,301.756 105.417,286.579 112.606 C 273.565 118.771,259.643 107.512,262.597 93.212 C 264.334 84.800,273.310 78.884,282.020 80.412 " stroke="none" fill="#e41b1f" fill-rule="evenodd"></path><path id="path3" d="M217.667 89.756 C 213.587 90.880,211.184 94.447,211.807 98.453 C 213.078 106.631,224.883 107.415,227.351 99.485 C 229.096 93.878,223.416 88.172,217.667 89.756 M277.368 89.759 C 268.327 92.193,269.991 105.000,279.348 105.000 C 287.214 105.000,290.183 95.076,283.595 90.803 C 281.726 89.590,279.427 89.205,277.368 89.759 " stroke="none" fill="#5cb434" fill-rule="evenodd"></path><path id="path4" d="M217.792 80.284 C 217.998 80.324,218.335 80.324,218.542 80.284 C 218.748 80.245,218.579 80.212,218.167 80.212 C 217.754 80.212,217.585 80.245,217.792 80.284 M220.458 80.284 C 220.665 80.324,221.002 80.324,221.208 80.284 C 221.415 80.245,221.246 80.212,220.833 80.212 C 220.421 80.212,220.252 80.245,220.458 80.284 M277.294 80.285 C 277.501 80.324,277.801 80.323,277.960 80.281 C 278.120 80.239,277.950 80.207,277.583 80.209 C 277.217 80.211,277.086 80.245,277.294 80.285 M279.877 80.286 C 280.131 80.325,280.506 80.324,280.711 80.284 C 280.916 80.244,280.708 80.213,280.250 80.214 C 279.792 80.216,279.624 80.248,279.877 80.286 M226.347 81.730 C 226.517 81.885,228.167 82.664,228.167 82.589 C 228.167 82.495,226.575 81.667,226.394 81.667 C 226.330 81.667,226.309 81.695,226.347 81.730 M271.292 82.094 C 270.856 82.321,270.500 82.544,270.500 82.589 C 270.500 82.664,272.150 81.884,272.319 81.730 C 272.526 81.542,271.984 81.734,271.292 82.094 M210.792 82.429 C 210.169 82.767,210.207 82.907,210.833 82.583 C 211.108 82.441,211.333 82.289,211.333 82.246 C 211.333 82.138,211.315 82.145,210.792 82.429 M287.667 82.374 C 287.712 82.424,288.275 82.811,288.917 83.232 C 289.558 83.653,289.841 83.788,289.546 83.532 C 289.084 83.132,287.432 82.114,287.667 82.374 M269.622 83.089 C 269.280 83.322,269.000 83.548,269.000 83.592 C 269.000 83.636,269.300 83.473,269.667 83.230 C 270.249 82.845,270.446 82.667,270.289 82.667 C 270.264 82.667,269.964 82.857,269.622 83.089 M229.417 83.452 C 229.508 83.547,230.112 84.074,230.757 84.624 C 231.403 85.174,232.375 86.214,232.917 86.937 C 234.050 88.447,234.356 88.795,233.925 88.083 C 233.011 86.573,231.172 84.600,229.804 83.660 C 229.499 83.450,229.325 83.357,229.417 83.452 M291.408 85.342 C 293.452 87.515,293.631 87.649,292.172 85.917 C 291.863 85.550,291.267 84.954,290.847 84.592 C 290.376 84.186,290.591 84.473,291.408 85.342 M207.161 85.292 L 206.250 86.250 207.208 85.339 C 207.735 84.838,208.167 84.407,208.167 84.381 C 208.167 84.257,208.007 84.401,207.161 85.292 M266.744 85.542 L 265.917 86.417 266.792 85.590 C 267.273 85.135,267.667 84.741,267.667 84.715 C 267.667 84.590,267.512 84.729,266.744 85.542 M204.793 88.209 C 204.423 88.772,203.471 90.693,203.531 90.753 C 203.560 90.781,203.933 90.136,204.361 89.319 C 205.126 87.858,205.278 87.468,204.793 88.209 M294.486 89.708 C 294.836 90.465,295.208 91.271,295.312 91.500 L 295.502 91.917 295.405 91.500 C 295.288 90.996,294.049 88.333,293.932 88.333 C 293.886 88.333,294.135 88.952,294.486 89.708 M234.663 89.659 C 236.130 92.565,236.668 98.940,235.711 102.081 C 235.516 102.721,235.384 103.272,235.417 103.306 C 235.512 103.401,235.983 101.708,236.186 100.542 C 236.525 98.596,236.292 93.837,235.773 92.117 C 235.362 90.757,234.437 88.667,234.245 88.667 C 234.199 88.667,234.387 89.113,234.663 89.659 M263.598 90.042 C 263.066 91.255,262.781 92.170,262.900 92.289 C 262.955 92.344,263.001 92.283,263.003 92.153 C 263.004 92.023,263.257 91.298,263.563 90.542 C 264.179 89.023,264.204 88.659,263.598 90.042 M295.521 92.083 C 295.513 92.175,295.611 92.625,295.738 93.083 C 295.866 93.542,295.971 93.767,295.972 93.583 C 295.975 93.229,295.545 91.801,295.521 92.083 M296.232 97.167 C 296.232 98.404,296.258 98.910,296.290 98.292 C 296.322 97.673,296.322 96.660,296.290 96.042 C 296.258 95.423,296.232 95.929,296.232 97.167 M202.221 97.250 C 202.222 97.892,202.252 98.134,202.288 97.788 C 202.324 97.442,202.324 96.917,202.287 96.621 C 202.250 96.325,202.221 96.608,202.221 97.250 M295.544 102.013 C 295.339 102.746,294.913 103.905,294.597 104.589 C 294.280 105.273,294.053 105.833,294.092 105.833 C 294.400 105.833,296.123 101.274,295.975 100.850 C 295.943 100.758,295.749 101.281,295.544 102.013 M262.922 102.583 C 262.977 102.858,263.206 103.458,263.430 103.917 C 263.885 104.845,263.818 104.582,263.221 103.083 C 263.001 102.533,262.867 102.308,262.922 102.583 M235.027 103.924 C 234.748 104.537,234.801 104.667,235.103 104.110 C 235.244 103.850,235.328 103.606,235.290 103.568 C 235.252 103.530,235.134 103.690,235.027 103.924 M203.833 104.568 C 203.833 104.739,204.680 106.167,204.782 106.167 C 204.828 106.167,204.659 105.810,204.408 105.375 C 203.888 104.473,203.833 104.397,203.833 104.568 M264.083 105.333 C 264.226 105.608,264.379 105.833,264.425 105.833 C 264.471 105.833,264.392 105.608,264.250 105.333 C 264.108 105.058,263.954 104.833,263.908 104.833 C 263.862 104.833,263.941 105.058,264.083 105.333 M234.250 105.500 C 234.108 105.775,234.029 106.000,234.075 106.000 C 234.121 106.000,234.274 105.775,234.417 105.500 C 234.559 105.225,234.638 105.000,234.592 105.000 C 234.546 105.000,234.392 105.225,234.250 105.500 M233.068 107.292 C 232.249 108.375,230.953 109.681,229.917 110.464 C 228.812 111.300,228.436 111.629,228.833 111.413 C 229.861 110.855,232.409 108.493,233.189 107.375 C 233.799 106.500,233.711 106.439,233.068 107.292 M206.124 108.083 C 206.408 108.450,207.000 109.087,207.441 109.500 C 208.055 110.075,207.992 109.977,207.174 109.083 C 205.708 107.482,205.526 107.309,206.124 108.083 M266.134 108.292 C 266.500 108.727,267.009 109.271,267.265 109.500 C 267.521 109.729,267.251 109.373,266.665 108.708 C 265.471 107.356,265.107 107.070,266.134 108.292 M291.678 108.879 C 290.947 109.689,290.765 109.943,291.233 109.500 C 291.953 108.820,293.109 107.494,292.972 107.504 C 292.942 107.507,292.359 108.125,291.678 108.879 M268.083 110.153 C 268.267 110.365,268.754 110.761,269.167 111.032 C 269.907 111.518,269.722 111.338,268.417 110.299 C 267.971 109.944,267.860 109.895,268.083 110.153 M208.833 110.663 C 209.154 110.953,209.567 111.269,209.750 111.365 C 210.192 111.598,209.918 111.348,209.000 110.681 L 208.250 110.137 208.833 110.663 M289.500 110.773 C 288.593 111.485,288.480 111.600,288.917 111.368 C 289.280 111.174,290.469 110.179,290.333 110.182 C 290.287 110.183,289.912 110.449,289.500 110.773 M271.167 112.248 C 271.167 112.362,272.187 112.868,272.263 112.792 C 272.300 112.756,272.068 112.602,271.748 112.449 C 271.428 112.297,271.167 112.206,271.167 112.248 M224.667 113.342 C 224.254 113.510,224.029 113.651,224.167 113.653 C 224.304 113.656,224.717 113.516,225.083 113.342 C 225.935 112.940,225.650 112.939,224.667 113.342 M273.000 113.139 C 273.137 113.224,273.438 113.343,273.667 113.404 C 273.956 113.482,274.007 113.469,273.833 113.361 C 273.696 113.276,273.396 113.157,273.167 113.096 C 272.877 113.018,272.826 113.031,273.000 113.139 M284.417 113.348 C 283.958 113.524,283.800 113.627,284.065 113.576 C 284.589 113.474,285.687 113.028,285.417 113.027 C 285.325 113.026,284.875 113.171,284.417 113.348 M215.083 113.755 C 215.450 113.876,215.900 113.973,216.083 113.972 C 216.267 113.971,216.042 113.866,215.583 113.738 C 214.541 113.448,214.188 113.460,215.083 113.755 M274.417 113.667 C 274.600 113.745,274.862 113.810,275.000 113.810 C 275.158 113.810,275.127 113.757,274.917 113.667 C 274.733 113.588,274.471 113.523,274.333 113.523 C 274.176 113.523,274.207 113.576,274.417 113.667 M223.000 113.833 C 222.665 113.941,222.649 113.968,222.917 113.972 C 223.100 113.974,223.400 113.912,223.583 113.833 C 224.008 113.651,223.570 113.651,223.000 113.833 M281.208 114.115 C 281.369 114.157,281.631 114.157,281.792 114.115 C 281.952 114.073,281.821 114.039,281.500 114.039 C 281.179 114.039,281.048 114.073,281.208 114.115 M218.375 114.286 C 218.627 114.324,219.040 114.324,219.292 114.286 C 219.544 114.248,219.338 114.217,218.833 114.217 C 218.329 114.217,218.123 114.248,218.375 114.286 M220.211 114.286 C 220.464 114.325,220.839 114.324,221.044 114.284 C 221.249 114.244,221.042 114.213,220.583 114.214 C 220.125 114.216,219.957 114.248,220.211 114.286 M278.213 114.289 C 278.652 114.324,279.327 114.323,279.713 114.288 C 280.100 114.254,279.742 114.225,278.917 114.226 C 278.092 114.226,277.775 114.255,278.213 114.289 " stroke="none" fill="#ec595c" fill-rule="evenodd"></path></g></svg>